REM DIRINDEX 1\2\4,1\2\5,1\2\6,1\3\7,1\3\8
REM DIRNAME folder01,folder02,folder03,folder04,folder05,folder06,folder07,folder08
TITLE ""
FILE "045_Proficiency Test10.mp3" MP3
  TRACK 01 AUDIO
    TITLE "0:"
    INDEX 01 00:00:00
  TRACK 02 AUDIO
    TITLE "6:cjc128_2382"
    INDEX 01 00:00:25
  TRACK 03 AUDIO
    TITLE "0:"
    INDEX 01 00:02:51
  TRACK 04 AUDIO
    TITLE "6:cjc128_2383"
    INDEX 01 00:02:71
  TRACK 05 AUDIO
    TITLE "0:"
    INDEX 01 00:04:50
  TRACK 06 AUDIO
    TITLE "4:cjc128_2384"
    INDEX 01 00:05:18
  TRACK 07 AUDIO
    TITLE "0:"
    INDEX 01 00:13:41
  TRACK 08 AUDIO
    TITLE "5:cjc128_2385"
    INDEX 01 00:20:36
  TRACK 09 AUDIO
    TITLE "0:"
    INDEX 01 00:26:50
  TRACK 10 AUDIO
    TITLE "6:cjc128_2386"
    INDEX 01 00:27:34
  TRACK 11 AUDIO
    TITLE "0:"
    INDEX 01 00:29:38
  TRACK 12 AUDIO
    TITLE "4:cjc128_2387"
    INDEX 01 00:30:18
  TRACK 13 AUDIO
    TITLE "0:"
    INDEX 01 00:36:23
  TRACK 14 AUDIO
    TITLE "5:cjc128_2388"
    INDEX 01 00:43:46
  TRACK 15 AUDIO
    TITLE "0:"
    INDEX 01 00:50:23
  TRACK 16 AUDIO
    TITLE "6:cjc128_2389"
    INDEX 01 00:51:03
  TRACK 17 AUDIO
    TITLE "0:"
    INDEX 01 00:53:02
  TRACK 18 AUDIO
    TITLE "4:cjc128_2390"
    INDEX 01 00:53:53
  TRACK 19 AUDIO
    TITLE "0:"
    INDEX 01 01:02:38
  TRACK 20 AUDIO
    TITLE "5:cjc128_2391"
    INDEX 01 01:12:26
  TRACK 21 AUDIO
    TITLE "0:"
    INDEX 01 01:21:47
